<mxfile host="app.diagrams.net">
  <diagram name="Production Flow">
    <mxGraphModel dx="1000" dy="1000" grid="1" gridSize="10" guides="1" tooltips="1" connect="1" arrows="1" fold="1" page="1" pageScale="1" pageWidth="827" pageHeight="1169" math="0">
      <root>
        <mxCell id="0" />
        <mxCell id="1" parent="0" />
        <mxCell id="2" value="Sales เปิด PO" style="rounded=1;fillColor=#ADD8E6;" vertex="1" parent="1">
          <mxGeometry x="200" y="50" width="120" height="50" as="geometry" />
        </mxCell>
        <mxCell id="3" value="WH ตรวจสอบ stock" style="rhombus;fillColor=#FFA500;" vertex="1" parent="1">
          <mxGeometry x="200" y="130" width="120" height="60" as="geometry" />
        </mxCell>
        <mxCell id="4" value="มี" edge="1" parent="1" source="3" target="5">
          <mxGeometry relative="1" as="geometry" />
        </mxCell>
        <mxCell id="5" value="ส่งผลิต&#xa;ส่งของให้ลูกค้า" style="rounded=1;fillColor=#90EE90;" vertex="1" parent="1">
          <mxGeometry x="50" y="250" width="140" height="50" as="geometry" />
        </mxCell>
        <mxCell id="6" value="ไม่มี" edge="1" parent="1" source="3" target="7">
          <mxGeometry relative="1" as="geometry" />
        </mxCell>
        <mxCell id="7" value="ส่งเรื่องให้ PN วางแผน" style="rounded=1;fillColor=#ADD8E6;" vertex="1" parent="1">
          <mxGeometry x="300" y="250" width="160" height="50" as="geometry" />
        </mxCell>
        <mxCell id="8" value="" edge="1" parent="1" source="2" target="3">
          <mxGeometry relative="1" as="geometry" />
        </mxCell>
        <mxCell id="9" value="" edge="1" parent="1" source="7" target="10">
          <mxGeometry relative="1" as="geometry" />
        </mxCell>
        <mxCell id="10" value="ผลิตได้ไหม" style="rhombus;fillColor=#FFA500;" vertex="1" parent="1">
          <mxGeometry x="300" y="350" width="120" height="60" as="geometry" />
        </mxCell>
        <mxCell id="11" value="ผลิตได้" edge="1" parent="1" source="10" target="12">
          <mxGeometry relative="1" as="geometry" />
        </mxCell>
        <mxCell id="12" value="สั่งผลิต&#xa;ส่งของให้ลูกค้า" style="rounded=1;fillColor=#90EE90;" vertex="1" parent="1">
          <mxGeometry x="200" y="450" width="140" height="50" as="geometry" />
        </mxCell>
        <mxCell id="13" value="ไม่ได้" edge="1" parent="1" source="10" target="14">
          <mxGeometry relative="1" as="geometry" />
        </mxCell>
        <mxCell id="14" value="Reject PO" style="rounded=1;fillColor=#FFA500;" vertex="1" parent="1">
          <mxGeometry x="400" y="450" width="100" height="50" as="geometry" />
        </mxCell>
      </root>
    </mxGraphModel>
  </diagram>
</mxfile>
